<?xml version="1.0" encoding="utf-8"?>
<!-- Generator: Adobe Illustrator 15.0.2, SVG Export Plug-In . SVG Version: 6.00 Build 0)  -->
<!DOCTYPE svg PUBLIC "-//W3C//DTD SVG 1.1//EN" "http://www.w3.org/Graphics/SVG/1.1/DTD/svg11.dtd">
<svg version="1.1" id="Calque_1" xmlns="http://www.w3.org/2000/svg" xmlns:xlink="http://www.w3.org/1999/xlink" x="0px" y="0px"
	 width="228px" height="228px" viewBox="0 0 228 228" enable-background="new 0 0 228 228" xml:space="preserve">
<g display="none" opacity="0.2">
	
		<linearGradient id="SVGID_1_" gradientUnits="userSpaceOnUse" x1="99.9072" y1="180.6006" x2="260.0076" y2="20.5004" gradientTransform="matrix(1 0 0 -1 -66.5698 213.9355)">
		<stop  offset="0" style="stop-color:#E6E6E6"/>
		<stop  offset="1" style="stop-color:#949494"/>
	</linearGradient>
	<path display="inline" fill="url(#SVGID_1_)" d="M113.387,226.646c-62.453,0-113.261-50.809-113.261-113.261
		c0-62.453,50.808-113.26,113.261-113.26c62.453,0,113.261,50.808,113.261,113.26C226.646,175.838,175.84,226.646,113.387,226.646
		L113.387,226.646z M113.387,8.275c-28.077,0-54.473,10.934-74.325,30.787S8.275,85.309,8.275,113.385
		c0,28.077,10.934,54.472,30.787,74.325s46.249,30.787,74.325,30.787c28.076,0,54.47-10.935,74.321-30.787
		c19.854-19.851,30.788-46.246,30.788-74.325c0-28.076-10.934-54.473-30.788-74.323C167.857,19.209,141.463,8.275,113.387,8.275
		L113.387,8.275z"/>
	<path display="inline" fill="#999999" d="M113.387,0c62.62,0,113.384,50.764,113.384,113.386
		c0,62.621-50.765,113.385-113.384,113.385C50.765,226.771,0,176.007,0,113.386C0,50.764,50.765,0,113.387,0 M113.387,218.372
		c28.044,0,54.406-10.92,74.233-30.75c19.831-19.828,30.75-46.192,30.75-74.236c0-28.042-10.919-54.407-30.75-74.236
		C167.793,19.32,141.432,8.4,113.387,8.4S58.979,19.32,39.15,39.15C19.32,58.979,8.4,85.343,8.4,113.386
		c0,28.043,10.92,54.408,30.75,74.236C58.979,207.452,85.343,218.372,113.387,218.372 M113.387,0.25
		c-30.22,0-58.631,11.768-80,33.137C12.019,54.755,0.25,83.166,0.25,113.386c0,30.219,11.769,58.631,33.137,79.999
		c21.368,21.368,49.78,33.137,80,33.137c30.218,0,58.63-11.769,79.998-33.137c21.368-21.367,33.137-49.779,33.137-79.999
		c0-30.22-11.769-58.631-33.137-79.999C172.018,12.018,143.605,0.25,113.387,0.25L113.387,0.25z M113.387,218.622
		c-28.111,0-54.538-10.946-74.414-30.823C19.097,167.924,8.15,141.497,8.15,113.386c0-28.11,10.946-54.537,30.823-74.413
		C58.849,19.097,85.276,8.15,113.387,8.15c28.109,0,54.536,10.946,74.41,30.823c19.877,19.875,30.823,46.302,30.823,74.413
		c0,28.112-10.946,54.539-30.823,74.413C167.923,207.676,141.497,218.622,113.387,218.622L113.387,218.622z"/>
</g>
<g id="cadre">
	<radialGradient id="SVGID_2_" cx="114.3115" cy="114.2178" r="113.3857" gradientUnits="userSpaceOnUse">
		<stop  offset="0.7747" style="stop-color:#FFFFFF"/>
		<stop  offset="0.98" style="stop-color:#580202"/>
		<stop  offset="1" style="stop-color:#3F0101"/>
	</radialGradient>
	<path fill="url(#SVGID_2_)" stroke="#1A171B" stroke-width="0.25" d="M114.313,0.832c62.62,0,113.385,50.764,113.385,113.386
		c0,62.621-50.765,113.386-113.385,113.386c-62.622,0-113.387-50.765-113.387-113.386C0.926,51.596,51.691,0.832,114.313,0.832z
		 M114.313,9.232c-28.044,0-54.408,10.92-74.237,30.75c-19.83,19.829-30.75,46.193-30.75,74.236c0,28.043,10.92,54.408,30.75,74.236
		c19.829,19.83,46.193,30.75,74.237,30.75s54.406-10.92,74.233-30.75c19.831-19.828,30.75-46.193,30.75-74.236
		c0-28.042-10.919-54.407-30.75-74.236C168.719,20.152,142.356,9.232,114.313,9.232L114.313,9.232z"/>
</g>
</svg>
