<?xml version="1.0" encoding="utf-8"?>
<!-- Generator: Adobe Illustrator 15.0.2, SVG Export Plug-In . SVG Version: 6.00 Build 0)  -->
<!DOCTYPE svg PUBLIC "-//W3C//DTD SVG 1.1//EN" "http://www.w3.org/Graphics/SVG/1.1/DTD/svg11.dtd">
<svg version="1.1" id="Calque_1" xmlns="http://www.w3.org/2000/svg" xmlns:xlink="http://www.w3.org/1999/xlink" x="0px" y="0px"
	 width="64px" height="63.996px" viewBox="0 0 64 63.996" enable-background="new 0 0 64 63.996" xml:space="preserve">
<g id="centre_1_">
	<g>
		<radialGradient id="SVGID_1_" cx="26.2983" cy="26.8257" r="24.0066" gradientUnits="userSpaceOnUse">
			<stop  offset="0" style="stop-color:#BD8F00"/>
			<stop  offset="0.6061" style="stop-color:#580202"/>
			<stop  offset="0.897" style="stop-color:#3F0101"/>
		</radialGradient>
		<path fill="url(#SVGID_1_)" d="M57.265,31.998c0,13.964-11.303,25.277-25.271,25.277c-13.959,0-25.271-11.313-25.271-25.277
			c0-13.953,11.313-25.271,25.271-25.271C45.962,6.727,57.265,18.044,57.265,31.998z"/>
	</g>
	<g>
		<g>
			<radialGradient id="SVGID_2_" cx="31.998" cy="32.0005" r="31.8745" gradientUnits="userSpaceOnUse">
				<stop  offset="0" style="stop-color:#FFFFFF"/>
				<stop  offset="0.98" style="stop-color:#580202"/>
				<stop  offset="1" style="stop-color:#3F0101"/>
			</radialGradient>
			<path fill="url(#SVGID_2_)" d="M31.993,63.876c-17.572,0-31.868-14.301-31.868-31.879c0-17.575,14.296-31.873,31.868-31.873
				c17.577,0,31.878,14.298,31.878,31.873C63.871,49.576,49.57,63.876,31.993,63.876z M31.993,6.981
				C18.223,7.01,7.005,18.232,6.985,31.998C7.005,45.76,18.223,56.981,31.993,57.01c13.766-0.029,24.989-11.25,25.017-25.012
				C56.981,18.232,45.759,7.01,31.993,6.981L31.993,6.981z"/>
			<path fill="#1A171B" d="M31.993,0.25c17.509,0,31.753,14.242,31.753,31.748c0,17.509-14.244,31.754-31.753,31.754
				C14.49,63.751,0.25,49.506,0.25,31.998C0.25,14.492,14.49,0.25,31.993,0.25 M31.993,57.135L31.993,57.135L31.993,57.135
				c13.835-0.029,25.114-11.306,25.142-25.138C57.106,18.164,45.828,6.885,31.993,6.856C18.154,6.885,6.88,18.164,6.86,31.998
				C6.88,45.83,18.154,57.106,31.993,57.135 M31.993,0C14.328,0,0,14.329,0,31.998c0,17.67,14.328,32.004,31.993,32.004
				c17.675,0,32.003-14.334,32.003-32.004C63.996,14.329,49.668,0,31.993,0L31.993,0z M31.993,56.885
				C18.248,56.856,7.13,45.743,7.11,31.998C7.13,18.258,18.248,7.135,31.993,7.106c13.744,0.029,24.863,11.152,24.892,24.892
				C56.856,45.743,45.737,56.856,31.993,56.885L31.993,56.885z"/>
		</g>
	</g>
</g>
</svg>
